<svg xmlns="http://www.w3.org/2000/svg" width="512" height="512" viewBox="0 0 256 256">
  <defs>
    <linearGradient id="g" x1="0" x2="1" y1="0" y2="1">
      <stop offset="0%" stop-color="#5aa9ff"/>
      <stop offset="100%" stop-color="#7fc4ff"/>
    </linearGradient>
  </defs>
  <rect rx="56" width="256" height="256" fill="url(#g)"/>
  <path fill="#fff" fill-opacity="0.95" d="M128 54c-35 0-63 25-63 56 0 18 11 34 29 45-1 14-5 24-14 32 16 0 30-8 40-19 3 1 6 1 8 1 35 0 63-25 63-56s-28-59-63-59Zm-31 45a11 11 0 1 1 0 22 11 11 0 0 1 0-22Zm62 0a11 11 0 1 1 0 22 11 11 0 0 1 0-22Z"/>
</svg>